<svg width="48" height="49" viewBox="0 0 48 49" fill="none" xmlns="http://www.w3.org/2000/svg">
<path d="M24 4.5C21.3736 4.5 18.7728 5.01732 16.3463 6.02241C13.9198 7.0275 11.715 8.50069 9.85786 10.3579C6.10714 14.1086 4 19.1957 4 24.5C4 33.34 9.74 40.84 17.68 43.5C18.68 43.66 19 43.04 19 42.5V39.12C13.46 40.32 12.28 36.44 12.28 36.44C11.36 34.12 10.06 33.5 10.06 33.5C8.24 32.26 10.2 32.3 10.2 32.3C12.2 32.44 13.26 34.36 13.26 34.36C15 37.4 17.94 36.5 19.08 36.02C19.26 34.72 19.78 33.84 20.34 33.34C15.9 32.84 11.24 31.12 11.24 23.5C11.24 21.28 12 19.5 13.3 18.08C13.1 17.58 12.4 15.5 13.5 12.8C13.5 12.8 15.18 12.26 19 14.84C20.58 14.4 22.3 14.18 24 14.18C25.7 14.18 27.42 14.4 29 14.84C32.82 12.26 34.5 12.8 34.5 12.8C35.6 15.5 34.9 17.58 34.7 18.08C36 19.5 36.76 21.28 36.76 23.5C36.76 31.14 32.08 32.82 27.62 33.32C28.34 33.94 29 35.16 29 37.02V42.5C29 43.04 29.32 43.68 30.34 43.5C38.28 40.82 44 33.34 44 24.5C44 21.8736 43.4827 19.2728 42.4776 16.8463C41.4725 14.4198 39.9993 12.215 38.1421 10.3579C36.285 8.50069 34.0802 7.0275 31.6537 6.02241C29.2272 5.01732 26.6264 4.5 24 4.5Z" fill="#B3B3B3"/>
</svg>
