<svg width="48" height="49" viewBox="0 0 48 49" fill="none" xmlns="http://www.w3.org/2000/svg">
<path fill-rule="evenodd" clip-rule="evenodd" d="M32 6.5C34.6522 6.5 37.1957 7.55357 39.0711 9.42893C40.9464 11.3043 42 13.8478 42 16.5V32.5C42 35.1522 40.9464 37.6957 39.0711 39.5711C37.1957 41.4464 34.6522 42.5 32 42.5H16C13.3478 42.5 10.8043 41.4464 8.92893 39.5711C7.05357 37.6957 6 35.1522 6 32.5V16.5C6 13.8478 7.05357 11.3043 8.92893 9.42893C10.8043 7.55357 13.3478 6.5 16 6.5H32ZM32 10.5H16C14.4087 10.5 12.8826 11.1321 11.7574 12.2574C10.6321 13.3826 10 14.9087 10 16.5V32.5C10 34.0913 10.6321 35.6174 11.7574 36.7426C12.8826 37.8679 14.4087 38.5 16 38.5H32C33.5913 38.5 35.1174 37.8679 36.2426 36.7426C37.3679 35.6174 38 34.0913 38 32.5V16.5C38 14.9087 37.3679 13.3826 36.2426 12.2574C35.1174 11.1321 33.5913 10.5 32 10.5ZM24 16.5C26.1217 16.5 28.1566 17.3429 29.6569 18.8431C31.1571 20.3434 32 22.3783 32 24.5C32 26.6217 31.1571 28.6566 29.6569 30.1569C28.1566 31.6571 26.1217 32.5 24 32.5C21.8783 32.5 19.8434 31.6571 18.3431 30.1569C16.8429 28.6566 16 26.6217 16 24.5C16 22.3783 16.8429 20.3434 18.3431 18.8431C19.8434 17.3429 21.8783 16.5 24 16.5ZM24 20.5C22.9391 20.5 21.9217 20.9214 21.1716 21.6716C20.4214 22.4217 20 23.4391 20 24.5C20 25.5609 20.4214 26.5783 21.1716 27.3284C21.9217 28.0786 22.9391 28.5 24 28.5C25.0609 28.5 26.0783 28.0786 26.8284 27.3284C27.5786 26.5783 28 25.5609 28 24.5C28 23.4391 27.5786 22.4217 26.8284 21.6716C26.0783 20.9214 25.0609 20.5 24 20.5ZM33 13.5C33.5304 13.5 34.0391 13.7107 34.4142 14.0858C34.7893 14.4609 35 14.9696 35 15.5C35 16.0304 34.7893 16.5391 34.4142 16.9142C34.0391 17.2893 33.5304 17.5 33 17.5C32.4696 17.5 31.9609 17.2893 31.5858 16.9142C31.2107 16.5391 31 16.0304 31 15.5C31 14.9696 31.2107 14.4609 31.5858 14.0858C31.9609 13.7107 32.4696 13.5 33 13.5Z" fill="#B3B3B3"/>
</svg>
