<svg width="106" height="56" viewBox="0 0 106 56" fill="none" xmlns="http://www.w3.org/2000/svg">
<path d="M77.0301 32.6433C77.0388 32.6629 77.0366 32.6846 77.0258 32.6998V32.702C77.0171 32.7194 76.9977 32.7303 76.9782 32.7303H54.5452C54.5236 32.7303 54.4998 32.7151 54.4911 32.6955L54.4868 32.6911C53.4198 30.6753 52.3948 27.5295 51.5068 25.4315L54.1883 19.4695C54.2078 19.4261 54.277 19.4239 54.2965 19.4695L54.5668 20.0563C54.5711 20.0585 54.5755 20.0671 54.5755 20.0671L58.0292 27.5863H68.8078L59.104 6.4826L54.2986 16.9291C54.2792 16.9769 54.21 16.9725 54.1905 16.9291L51.312 10.6508C51.3055 10.6355 51.3055 10.6138 51.312 10.6008L56.1736 0.0369441C56.1823 0.0152123 56.2061 0 56.2277 0H61.9803C62.0019 0 62.0236 0.0173854 62.0344 0.0369441L77.0301 32.6433Z" fill="#EEF1DE"/>
<path d="M47.2268 19.4695C47.2463 19.4261 47.3133 19.4261 47.3328 19.4695L50.062 25.4315L47.0603 32.6955C47.0516 32.7129 47.0279 32.7303 47.0062 32.7303H24.5537C24.5127 32.7303 24.4824 32.6825 24.4997 32.6433L39.4954 0.0369441C39.5062 0.0152123 39.5278 0 39.5495 0H45.3194C45.341 0 45.3648 0.0173854 45.3734 0.0369441L53.7039 18.1765C53.7082 18.1917 53.7082 18.2113 53.7039 18.2265L50.8254 24.4852C50.8038 24.5309 50.7411 24.5309 50.7173 24.4852L42.4214 6.48477L32.7177 27.5885H43.4963L47.2268 19.4695Z" fill="#EEF1DE"/>
<path d="M0.933899 44.3827H8.03399V45.9689H5.26257V56H3.69591V45.9689H0.933899V44.3827Z" fill="#EEF1DE"/>
<path d="M13.1308 44.3827H14.7162V48.8497H20.2669V44.3827H21.8351V56H20.2669V50.4186H14.7162V56H13.1308V44.3827Z" fill="#EEF1DE"/>
<path d="M26.9319 44.3827H33.3677V45.9689H28.5001V48.8685H33.3677V50.4374H28.5001V54.4311H33.3677V56H26.9319V44.3827Z" fill="#EEF1DE"/>
<path d="M54.7958 44.0099L57.8296 55.5738H56.3453L54.5082 48.5084L51.3454 56L48.1746 48.446L46.3131 55.5738H44.8355L47.8707 44.0099L51.3441 52.2834L54.7958 44.0099Z" fill="#EEF1DE"/>
<path d="M64.5134 44.0097V51.149C64.5134 52.207 64.7672 53.0251 65.2733 53.6019C65.7809 54.1787 66.4984 54.4687 67.429 54.4687C68.3596 54.4687 69.0708 54.2022 69.5847 53.6709C70.097 53.138 70.3555 52.3904 70.3555 51.4233V44.0097H71.9409V51.3136C71.9409 52.7368 71.5352 53.8731 70.7237 54.7242C69.9121 55.5752 68.8327 56 67.4838 56C66.1349 56 64.9991 55.569 64.1703 54.7054C63.3416 53.8433 62.9264 52.569 62.9264 50.8857V44.0097H64.5134Z" fill="#EEF1DE"/>
<path d="M77.0377 44.3827H78.6044V54.4311H82.3863V56H77.0377V44.3827Z" fill="#EEF1DE"/>
<path d="M89.0497 44.3827H87.4831V56H89.0497V44.3827Z" fill="#EEF1DE"/>
<path d="M99.5797 47.5613L97.7232 51.7039H101.458L99.5797 47.5613ZM99.5844 43.936L105.066 56H103.404L102.057 53.0267H97.1294L95.7978 56H94.1465L99.5844 43.936Z" fill="#EEF1DE"/>
</svg>
