<svg width="58" height="61" viewBox="0 0 58 61" fill="none" xmlns="http://www.w3.org/2000/svg">
<path d="M31.944 39.32L31.512 30.344L47.592 13.4H56.232L41.736 29L37.416 33.608L31.944 39.32ZM24.984 47V13.4H32.712V47H24.984ZM47.976 47L36.024 32.36L41.112 26.84L57.048 47H47.976Z" fill="#505050"/>
<path d="M26.056 21.68L26.488 30.656L10.408 47.6L1.768 47.6L16.264 32L20.584 27.392L26.056 21.68ZM33.016 14L33.016 47.6L25.288 47.6L25.288 14L33.016 14ZM10.024 14L21.976 28.64L16.888 34.16L0.951994 14L10.024 14Z" fill="#505050"/>
</svg>
